<?xml version="1.0" encoding="UTF-8"?>
<svg id="Layer_2" data-name="Layer 2" xmlns="http://www.w3.org/2000/svg" viewBox="0 0 359.9 359.16">
  <defs>
    <style>
      .cls-1 {
        fill: #020201;
      }

      .cls-1, .cls-2, .cls-3, .cls-4, .cls-5, .cls-6, .cls-7, .cls-8, .cls-9, .cls-10, .cls-11, .cls-12 {
        stroke-width: 0px;
      }

      .cls-2 {
        fill: #030303;
      }

      .cls-3 {
        fill: #6cbac6;
      }

      .cls-4 {
        fill: #56959e;
      }

      .cls-5 {
        fill: #fcb52f;
      }

      .cls-6 {
        fill: #6bb9c5;
      }

      .cls-7 {
        fill: #fd421d;
      }

      .cls-8 {
        fill: #f6d7b4;
      }

      .cls-9 {
        fill: #f8b22e;
      }

      .cls-10 {
        fill: #55939d;
      }

      .cls-11 {
        fill: #f19606;
      }

      .cls-12 {
        fill: #f0bd8c;
      }
    </style>
  </defs>
  <g id="Layer_1-2" data-name="Layer 1">
    <path class="cls-1" d="M24.01,255.61c0-16.46-.03-32.92.03-49.37,0-2.06-.45-3.83-1.45-5.64C7.64,173.58.14,144.62.02,113.75c-.04-9.48-.02-18.95,0-28.43.01-5.39,2.08-7.46,7.44-7.49,4.5-.03,9-.14,13.49.05,2.37.1,3.21-.47,3.12-3.01-.21-5.85.22-11.73-.13-17.57-.62-10.56,4.01-18.5,11.82-24.95,11.37-9.39,24.86-14.58,38.75-18.76C97.32,6.74,120.73,3.28,144.42,1.44c20.71-1.61,41.43-1.95,62.15-.62,32.6,2.09,64.81,6.31,95.39,18.68,9.17,3.71,17.83,8.38,24.99,15.4,5.96,5.85,9.35,12.75,9,21.33-.24,5.85.13,11.73-.12,17.58-.13,3.09.41,4.41,3.93,4.12,4.59-.38,9.24-.17,13.86-.06,3.79.09,6.25,2.33,6.22,6.03-.19,18.93.95,37.88-2.02,56.73-3.28,20.86-9.86,40.55-20.01,59.04-1.37,2.5-1.96,4.94-1.95,7.76.07,31.42-.17,62.84.16,94.26.11,10.7-4.08,18.75-12.03,25.26-11.41,9.35-24.89,14.53-38.79,18.69-26.33,7.88-53.39,11.29-80.75,12.82-25.63,1.43-51.2.72-76.68-2.34-26.44-3.18-52.51-8.01-76.8-19.61-6.78-3.24-13.1-7.23-18.41-12.63-5.66-5.75-8.74-12.45-8.62-20.75.23-15.83.07-31.67.07-47.5ZM191.93,275.45c-18.96-.03-37.91-.06-56.87-.08-9.66-.01-9.6,0-9.13,9.7.09,1.79.59,2.31,2.36,2.3,16.71-.12,33.42-.16,50.13-.22,15.58.06,31.17.14,46.75.18,9.13.03,9.05,0,8.83-9.31-.05-2.16-.71-2.71-2.79-2.69-13.09.11-26.19.1-39.28.13ZM239.94,263.27c1.64.25,3.49.65,4.21,2.1,1.39,2.8,3.02,1.88,5.02.96,30.81-14.21,55.29-35.59,73.39-64.25.89-1.4,1.71-2.75,1.22-4.49,0-7,0-14,0-20.99.03-33.16.07-66.32.07-99.48,0-.28-.34-.55-.58-.93-9.81,7.52-20.84,12.38-32.4,16.13-2.29.74-3.11,1.77-3.01,4.2.2,5.1.07,10.22.06,15.33-.03,18.62-11.89,31.02-30.43,31.85-9.88.44-17.34,8-17.53,17.86-.08,4.24.04,8.48-.05,12.72-.39,18.53-14.98,33.94-33.26,35.18-18.64,1.26-34.89-11.49-38.12-29.83-.98-5.58-.47-11.19-.54-16.79-.14-11.09-7.78-19.2-18.17-19.13-10.22.07-17.8,8.15-17.83,19.06-.03,11.22-.03,22.44,0,33.66,0,3.38-.32,6.71-1.17,9.99-4.31,16.48-17.39,26.27-36.32,27.16-16.7-1.72-27.86-10.39-33.25-26.33-.92-4.02-1.31-8.08-1.28-12.21.08-10.09.03-20.17.03-30.26,0-24.16,0-48.32-.03-72.48,0-1.36.69-3.05-1.3-3.85-7.95-3.2-15.41-7.31-22.66-12.83,0,6.81,0,13,0,19.2.04,27.27.08,54.54.13,81.81,0,7,0,14,0,20.99-.5,1.74.32,3.09,1.21,4.49,17.95,28.44,42.22,49.7,72.72,63.92,2.23,1.04,4.27,2.48,5.95-.91.65-1.31,2.45-1.59,3.95-1.83,15.32.04,30.65.11,45.97.1,24.67,0,49.34-.07,74.01-.1ZM138.53,93.64c.51.38,1.05.49,1.64.23.5.06.99.12,1.49.18,8.43,1.05,16.92,1.32,25.39,1.58,21.99.66,43.93-.27,65.77-2.96,20.82-2.57,41.38-6.43,61.02-14.1,8.5-3.32,16.77-7.14,23.61-13.36,8.67-7.88,8.63-15.28-.18-23.04-7.6-6.7-16.67-10.78-26.18-13.99-1.74-.66-3.45-1.39-5.22-1.96-25.7-8.3-52.23-11.84-79.06-13.45-26.36-1.58-52.67-.93-78.9,2.22-21.96,2.64-43.6,6.74-64.23,15.03-8,3.21-15.76,6.97-22.04,13.08-7.5,7.3-7.5,13.96-.09,21.25,4.22,4.16,9.2,7.26,14.51,9.77,26.1,12.33,54,17.12,82.46,19.52ZM36.01,221.24v4.74c0,25.43.12,50.87-.09,76.3-.05,6.01,2.1,10.58,6.41,14.46,6.31,5.69,13.78,9.42,21.57,12.48,28.8,11.31,59.04,15.3,89.65,17.2,26.24,1.62,52.44.87,78.55-2.24,21.23-2.53,42.15-6.5,62.18-14.24,8.29-3.2,16.28-6.99,23.03-12.94,4.44-3.91,6.73-8.54,6.68-14.72-.21-25.56-.08-51.12-.09-76.67,0-1.16-.11-2.32-.19-4.02-1.1,1.37-1.81,2.22-2.49,3.08-17.89,22.6-39.79,40.31-66.19,51.87-7.35,3.22-10.16,6.79-9.24,14.6.74,6.25-1.72,8.16-8.13,8.17-22.99,0-45.97,0-68.96,0-15.87,0-31.73.02-47.6-.01-4.9-.01-7.04-2.2-7.11-7.08-.04-2.74-.21-5.5.05-8.22.24-2.55-.73-3.68-3.06-4.62-13.71-5.53-26.43-12.87-38.29-21.68-13.7-10.18-25.67-22.09-36.67-36.44ZM72,147.4c0,16.33.02,32.66-.01,48.99,0,3.02.33,5.96,1.32,8.82,3.73,10.81,14.86,17.77,25.79,16.1,11.96-1.82,20.68-11.41,20.84-23.29.16-12.34-.08-24.68.1-37.02.21-15.22,12.17-27.89,27.28-29.21,15.38-1.34,29.15,9.11,32.07,24.32,1.14,5.94.41,11.93.58,17.9.35,12.3,9.75,22.41,21.93,23.47,12.05,1.05,22.89-7.06,25.48-19.03,1.1-5.06.51-10.19.54-15.28.12-18.26,12.08-30.68,30.44-31.48,9.85-.43,17.35-8.01,17.55-17.85.09-4.49-.16-8.98.08-13.46.17-3.03-.7-3.49-3.55-2.76-12.94,3.3-26.11,5.53-39.37,7.05-25.85,2.96-51.77,3.89-77.77,2.4-27.11-1.54-53.89-4.99-79.97-12.82-3.01-.9-3.41-.17-3.39,2.66.12,16.83.06,33.65.06,50.48ZM24.01,174.12c0-1.31,0-2.61,0-3.92,0-23.77,0-47.54,0-71.32,0-9.45,0-9.37-9.62-9.15-2.06.05-2.43.71-2.41,2.55.17,14.55-.52,29.12,1.55,43.61,1.87,13.14,5.03,25.94,10.49,38.22ZM335.9,175.25c2.47-5.54,3.86-10.24,5.28-14.93,6.17-20.25,7.15-41.06,6.74-62.03-.17-8.54-.03-8.38-8.74-8.58-3-.07-3.35.95-3.34,3.55.09,25.89.06,51.78.06,77.67v4.32Z"/>
    <path class="cls-5" d="M36.01,221.24c10.99,14.35,22.97,26.26,36.67,36.44,11.86,8.81,24.58,16.15,38.29,21.68,2.33.94,3.31,2.07,3.06,4.62-.26,2.72-.09,5.48-.05,8.22.07,4.88,2.21,7.07,7.11,7.08,15.87.04,31.73.01,47.6.01,22.99,0,45.97,0,68.96,0,6.41,0,8.87-1.92,8.13-8.17-.93-7.81,1.88-11.38,9.24-14.6,26.41-11.56,48.31-29.26,66.19-51.87.68-.86,1.39-1.72,2.49-3.08.08,1.7.19,2.86.19,4.02,0,25.56-.11,51.12.09,76.67.05,6.17-2.24,10.81-6.68,14.72-6.75,5.95-14.74,9.74-23.03,12.94-20.03,7.73-40.95,11.71-62.18,14.24-26.11,3.11-52.3,3.86-78.55,2.24-30.61-1.89-60.85-5.89-89.65-17.2-7.8-3.06-15.26-6.79-21.57-12.48-4.3-3.88-6.45-8.44-6.41-14.46.2-25.43.09-50.87.09-76.3v-4.74Z"/>
    <path class="cls-5" d="M94.5,233.55c18.93-.89,32.01-10.68,36.32-27.16.86-3.27,1.18-6.6,1.17-9.99-.03-11.22-.04-22.44,0-33.66.03-10.91,7.61-18.99,17.83-19.06,10.39-.07,18.02,8.04,18.17,19.13.07,5.6-.44,11.2.54,16.79,3.23,18.34,19.48,31.09,38.12,29.83,18.28-1.24,32.87-16.65,33.26-35.18.09-4.24-.04-8.48.05-12.72.2-9.85,7.65-17.41,17.53-17.86,18.54-.83,30.4-13.23,30.43-31.85,0-5.11.14-10.23-.06-15.33-.09-2.42.72-3.45,3.01-4.2,11.55-3.75,22.59-8.61,32.4-16.13.24.37.58.65.58.93,0,33.16-.04,66.32-.07,99.48-.78,1.12-1.57,2.23-2.32,3.37-10.01,15.14-21.83,28.61-36.02,40.05-9.75,7.86-20.16,14.64-31.37,20.08-5.52,2.68-10.85,5.62-17.74,5.54-37.59-.42-75.19-.2-112.79-.19-1.71,0-3.67.77-5.09.18-8.26-3.44-16.55-6.89-23.94-12.07Z"/>
    <path class="cls-7" d="M72,147.4c0-16.83.06-33.65-.06-50.48-.02-2.84.38-3.57,3.39-2.66,26.07,7.83,52.86,11.28,79.97,12.82,26,1.48,51.92.56,77.77-2.4,13.26-1.52,26.42-3.76,39.37-7.05,2.85-.73,3.71-.27,3.55,2.76-.24,4.47,0,8.97-.08,13.46-.2,9.83-7.69,17.42-17.55,17.85-18.37.8-30.32,13.22-30.44,31.48-.03,5.09.55,10.22-.54,15.28-2.59,11.97-13.43,20.07-25.48,19.03-12.18-1.06-21.58-11.17-21.93-23.47-.17-5.97.56-11.96-.58-17.9-2.91-15.2-16.69-25.66-32.07-24.32-15.11,1.32-27.07,13.99-27.28,29.21-.17,12.34.07,24.68-.1,37.02-.16,11.88-8.88,21.47-20.84,23.29-10.93,1.66-22.06-5.29-25.79-16.1-.99-2.86-1.32-5.8-1.32-8.82.03-16.33.01-32.66.01-48.99Z"/>
    <path class="cls-8" d="M141.66,94.04c-.5-.06-.99-.12-1.49-.18-.5-.44-1.06-.4-1.64-.23-28.46-2.4-56.37-7.19-82.46-19.52-5.31-2.51-10.28-5.62-14.51-9.77-7.41-7.3-7.41-13.95.09-21.25,6.28-6.12,14.04-9.87,22.04-13.08,20.63-8.29,42.27-12.39,64.23-15.03,26.23-3.15,52.54-3.8,78.9-2.22,26.84,1.61,53.36,5.15,79.06,13.45,1.77.57,3.48,1.3,5.22,1.96-2.93,3.34-6.33,6.07-10.32,8.05-17.99-5.97-36.59-8.62-55.39-10.2-43.1-3.63-86.04-2.99-128.61,5.46-10.77,2.14-21.45,4.87-30.44,11.66-8.53,6.44-8.43,15.32.08,21.75,3.61,2.73,7.64,4.68,11.89,6.18,20.17,7.14,41.23,9.45,62.38,11.23,14.56,1.23,29.17,1.49,43.77,1.6-.54.26-1.06.62-1.64.78-11.08,3.09-22.3,5.48-33.64,7.46-2.49.44-5.47-.47-7.51,1.89Z"/>
    <path class="cls-11" d="M94.5,233.55c7.39,5.18,15.68,8.62,23.94,12.07,1.42.59,3.38-.17,5.09-.18,37.6-.02,75.2-.23,112.79.19,6.9.08,12.22-2.87,17.74-5.54,11.21-5.44,21.62-12.22,31.37-20.08,14.19-11.44,26.01-24.91,36.02-40.05.75-1.14,1.55-2.25,2.32-3.37,0,7,0,14,0,20.99-8.57,10.67-17.85,20.65-28.32,29.5-15.42,13.05-32.53,23.24-51.48,30.28-2.98,1.11-4.69,2.57-4.04,5.9-24.67.04-49.34.1-74.01.1-15.32,0-30.65-.07-45.97-.1.65-3.33-.96-4.98-4.04-5.9-2.49-.74-4.87-1.86-7.27-2.9-18.07-7.81-34.53-18.18-48.98-31.53-8.48-7.84-16.56-16.11-23.54-25.36,0-7,0-13.99,0-20.99,4.6,6.64,8.86,13.54,14.25,19.56,3.44,3.84,5.99,8.61,10.85,11.07,5.39,15.94,16.55,24.62,33.25,26.33Z"/>
    <path class="cls-5" d="M61.24,207.22c-4.87-2.46-7.41-7.23-10.85-11.07-5.4-6.02-9.66-12.92-14.25-19.56-.04-27.27-.09-54.54-.13-81.81,0-6.2,0-12.39,0-19.2,7.25,5.52,14.71,9.63,22.66,12.83,1.99.8,1.3,2.49,1.3,3.85.04,24.16.03,48.32.03,72.48,0,10.09.05,20.18-.03,30.26-.03,4.13.36,8.19,1.28,12.21Z"/>
    <path class="cls-12" d="M280.77,36.22c3.99-1.99,7.39-4.72,10.32-8.05,9.51,3.21,18.58,7.29,26.18,13.99,8.81,7.77,8.85,15.16.18,23.04-6.84,6.22-15.11,10.04-23.61,13.36-19.65,7.66-40.21,11.53-61.02,14.1-21.83,2.69-43.78,3.61-65.77,2.96-8.47-.25-16.96-.53-25.39-1.58,2.04-2.36,5.02-1.45,7.51-1.89,11.33-1.98,22.56-4.37,33.64-7.46.57-.16,1.09-.51,1.64-.78,1.62-.05,3.24-.12,4.86-.16,24.86-.62,49.64-2.24,74.02-7.48,10.49-2.25,20.98-4.79,29.88-11.21,8.98-6.48,8.91-15.61.08-22.25-3.82-2.87-8.23-4.62-12.52-6.59Z"/>
    <path class="cls-3" d="M178.41,287.14c-16.71.06-33.42.1-50.13.22-1.77.01-2.27-.51-2.36-2.3-.47-9.7-.53-9.71,9.13-9.7,18.96.02,37.91.06,56.87.08.02,1.15-.88,1.57-1.58,2.26-3.65,3.57-8.58,5.51-11.93,9.43Z"/>
    <path class="cls-9" d="M239.94,263.27c-.66-3.34,1.05-4.79,4.04-5.9,18.95-7.04,36.06-17.23,51.48-30.28,10.47-8.86,19.75-18.83,28.32-29.5.5,1.74-.33,3.09-1.22,4.49-18.1,28.66-42.58,50.04-73.39,64.25-2,.92-3.63,1.83-5.02-.96-.72-1.45-2.57-1.85-4.21-2.1Z"/>
    <path class="cls-9" d="M36.13,197.59c6.98,9.25,15.06,17.53,23.54,25.36,14.45,13.35,30.91,23.72,48.98,31.53,2.39,1.03,4.78,2.15,7.27,2.9,3.08.92,4.69,2.56,4.04,5.9-1.5.24-3.3.52-3.95,1.83-1.68,3.38-3.72,1.95-5.95.91-30.5-14.22-54.77-35.48-72.72-63.92-.89-1.4-1.71-2.75-1.21-4.49Z"/>
    <path class="cls-4" d="M178.41,287.14c3.36-3.92,8.29-5.86,11.93-9.43.7-.69,1.6-1.12,1.58-2.26,13.09-.03,26.19-.02,39.28-.13,2.07-.02,2.74.53,2.79,2.69.22,9.32.3,9.34-8.83,9.31-15.58-.04-31.17-.12-46.75-.18Z"/>
    <path class="cls-12" d="M138.53,93.64c.58-.18,1.15-.22,1.64.23-.6.27-1.14.15-1.64-.23Z"/>
    <path class="cls-2" d="M280.77,36.22c4.29,1.97,8.7,3.72,12.52,6.59,8.83,6.64,8.9,15.77-.08,22.25-8.9,6.42-19.39,8.96-29.88,11.21-24.39,5.24-49.16,6.85-74.02,7.48-1.62.04-3.24.1-4.86.16-14.61-.11-29.21-.37-43.77-1.6-21.14-1.79-42.2-4.09-62.38-11.23-4.24-1.5-8.28-3.46-11.89-6.18-8.5-6.43-8.6-15.32-.08-21.75,8.99-6.79,19.67-9.52,30.44-11.66,42.57-8.45,85.51-9.08,128.61-5.46,18.8,1.58,37.4,4.23,55.39,10.2ZM227.14,69.42c14.71-1.02,29.19-3.4,43.41-7.29,4.81-1.31,9.55-2.93,13.86-5.5,3.99-2.37,4.02-3.56.03-5.76-4.82-2.66-9.96-4.52-15.42-5.44-1.42-.45-2.81-.99-4.25-1.32-25.67-5.93-51.77-7.83-78.01-8.1-31.88-.34-63.62,1.26-94.76,8.92-5.82,1.43-11.56,3.16-16.78,6.18-3.79,2.19-3.75,3.2.09,5.44,4.44,2.6,9.27,4.24,14.21,5.61,18.36,5.08,37.18,7.19,56.12,8.47,27.2,1.84,54.37,1.8,81.5-1.21Z"/>
    <path class="cls-6" d="M227.14,69.42c-27.13,3.01-54.3,3.05-81.5,1.21-18.94-1.28-37.75-3.39-56.12-8.47-4.93-1.36-9.77-3.01-14.21-5.61-3.84-2.25-3.88-3.26-.09-5.44,5.22-3.02,10.96-4.75,16.78-6.18,31.14-7.66,62.88-9.25,94.76-8.92,26.24.28,52.35,2.17,78.01,8.1,1.44.33,2.83.88,4.25,1.32-.46.2-.96.33-1.37.6-12.43,8.09-25.4,15.25-38.79,21.62-.78.37-1.64.7-1.72,1.77Z"/>
    <path class="cls-10" d="M227.14,69.42c.08-1.07.94-1.4,1.72-1.77,13.4-6.37,26.36-13.52,38.79-21.62.41-.27.91-.4,1.37-.6,5.46.91,10.6,2.78,15.42,5.44,3.99,2.2,3.96,3.39-.03,5.76-4.31,2.57-9.05,4.18-13.86,5.5-14.22,3.89-28.7,6.27-43.41,7.29Z"/>
  </g>
</svg>