<?xml version="1.0" encoding="UTF-8"?>
<svg id="Layer_2" data-name="Layer 2" xmlns="http://www.w3.org/2000/svg" viewBox="0 0 359.29 408.9">
  <defs>
    <style>
      .cls-1 {
        fill: #18181b;
        stroke-width: 0px;
      }
    </style>
  </defs>
  <g id="Layer_1-2" data-name="Layer 1">
    <path class="cls-1" d="M231.59,0c5.71,2.34,11.98,3.84,17.01,7.19,10.22,6.8,14.63,17.2,14.92,29.35.09,3.58.01,7.17.01,11.38,1.55,0,2.95,0,4.34,0,22.22,0,44.45-.12,66.67.04,17.61.12,28.94,15.75,23.28,32-2.78,7.98-8.55,13.03-16.74,15.04-2.68.65-5.53.81-8.31.81-102.07.04-204.14,0-306.21.07-9.59,0-17.56-2.95-22.82-11.27-8.99-14.2-.97-32.79,15.51-36.07,2.46-.49,5.02-.58,7.54-.59,21.43-.04,42.85-.03,64.28-.03h5.16c0-5.6-.52-10.93.1-16.13,1.96-16.58,13.51-28.36,29.98-31.21.5-.09.97-.38,1.45-.58,34.61,0,69.22,0,103.83,0ZM239.57,47.74c0-3.5,0-6.56,0-9.61-.03-9.62-4.55-14.16-14.16-14.17-17.15-.02-34.31,0-51.46,0-13.83,0-27.66-.04-41.49.02-6.24.03-11.17,3.25-12.07,8.91-.77,4.84-.16,9.91-.16,14.86h119.33Z"/>
    <path class="cls-1" d="M24.93,120h309.48c-1.12,13.72-2.21,27.22-3.33,40.71-2,24.12-4.01,48.24-6.02,72.36-2.3,27.7-4.61,55.4-6.91,83.1-1.64,19.75-3.1,39.51-4.99,59.24-1.91,19.94-16.87,33.42-36.96,33.44-64.27.08-128.55.07-192.82,0-20.34-.02-35.33-13.41-37.19-33.62-2.6-28.21-4.76-56.45-7.12-84.68-2.54-30.48-5.1-60.96-7.63-91.44-2.18-26.24-4.32-52.48-6.51-79.1ZM131.82,350.22c-1.33-21.89-2.42-40.07-3.54-58.25-2.04-32.91-4.09-65.83-6.14-98.74-.79-12.74-1.53-25.49-2.43-38.22-.44-6.28-5.02-10.8-10.97-11.21-6-.42-11.4,3.44-12.53,9.42-.51,2.69-.25,5.56-.08,8.33,1.99,32.52,4.04,65.03,6.06,97.55,1.88,30.13,3.72,60.26,5.63,90.38.32,5.1,2.94,8.79,7.75,10.64,8.69,3.35,16.52-3.3,16.25-9.89ZM263.41,158.66s.05,0,.08,0c0-.4,0-.8,0-1.2.21-7.81-4.48-13.43-11.39-13.68-6.89-.25-12.14,5.07-12.56,12.67-.22,3.99-.52,7.97-.76,11.95-1.71,27.62-3.39,55.24-5.11,82.86-1.99,31.87-4.04,63.73-5.97,95.61-.49,8.09,4.28,13.75,11.39,14.04,7.1.29,12.06-4.94,12.55-13.04,1.35-22.44,2.74-44.89,4.14-67.33,2.54-40.63,5.1-81.27,7.65-121.9ZM191.65,252.68c0-30.61,0-61.22,0-91.83,0-2,.1-4-.08-5.99-.78-8.79-10.1-13.83-17.68-9.54-4.5,2.55-6.22,6.61-6.22,11.67.03,63.62.02,127.23.02,190.85,0,.8-.02,1.61.1,2.39.71,4.72,3.19,8.14,7.67,9.87,8.23,3.19,16.16-2.86,16.17-12.41.04-31.67.02-63.35.02-95.02Z"/>
  </g>
</svg>